<mxfile host="65bd71144e">
    <diagram id="kBGQ-lwKKHkzGXs67_Vc" name="Page-1">
        <mxGraphModel dx="1227" dy="488" grid="1" gridSize="10" guides="1" tooltips="1" connect="1" arrows="1" fold="1" page="1" pageScale="1" pageWidth="1169" pageHeight="827" math="0" shadow="0">
            <root>
                <mxCell id="0"/>
                <mxCell id="1" parent="0"/>
                <mxCell id="5" value="" style="rounded=0;whiteSpace=wrap;html=1;fontStyle=1" parent="1" vertex="1">
                    <mxGeometry width="1160" height="820" as="geometry"/>
                </mxCell>
                <mxCell id="7" value="" style="shape=image;imageAspect=0;aspect=fixed;verticalLabelPosition=bottom;verticalAlign=top;image=data:image/png,iVBORw0KGgoAAAANSUhEUgAAAggAAAIICAYAAAAL/BZjAAAAAXNSR0IArs4c6QAAIABJREFUeF7t3Qe0VdWdx/G/oihoRgHFRsACKhJFURNbTLFgjY2og9FIQEyUiAyWEQuxYYgSDLZRQRwLsSBqbCBoEhNb7BWDKArGggo6KigIzvqf5L5crk/Pe+/u///ue/Z3rzXLtTLn7n3253957/dO2Xu5L7744guhIYAAAggggAACZQLLERD4PiCAAAIIIIBApQABge8EAggggAACCHxJgIDAlwIBBBBAAAEECAh8BxBAAAEEEEAgX4ArCPlGHIEAAggggEByAgSE5ErOhBFAAAEEEMgXICDkG3EEAggggAACyQkQEJIrORNGAAEEEEAgX4CAkG/EEQgggAACCCQnQEBIruRMGAEEEEAAgXwBAkK+EUcggAACCCCQnAABIbmSM2EEEEAAAQTyBQgI+UYcgQACCCCAQHICBITkSs6EEUAAAQQQyBcgIOQbcQQCCCCAAALJCRAQkis5E0YAAQQQQCBfgICQb8QRCCCAAAIIJCdAQEiu5EwYAQQQQACBfAECQr4RRyCAAAIIIJCcAAEhuZIzYQQQQAABBPIFCAj5RhyBAAIIIIBAcgIEhORKzoQRQAABBBDIFyAg5BtxBAIIIIAAAskJEBCSKzkTRgABBBBAIF+AgJBvxBEIIIAAAggkJ0BASK7kTBgBBBBAAIF8AQJCvhFHIIAAAgggkJwAASG5kjNhBBBAAAEE8gUICPlGHIEAAggggEByAgSE5ErOhBFAAAEEEMgXICDkG3EEAggggAACyQkQEJIrORNGAAEEEEAgX4CAkG/EEQgggAACCCQnQEBIruRMGAEEEEAAgXwBAkK+EUcggAACCCCQnAABIbmSM2EEEEAAAQTyBQgI+UYcgQACCCCAQHICBITkSs6EEUAAAQQQyBcgIOQbcQQCCCCAAALJCRAQkis5E0YAAQQQQCBfgICQb8QRCCCAAAIIJCdAQEiu5EwYAQQQQACBfAECQr4RRyCAAAIIIJCcAAEhuZIzYQQQQAABBPIFCAj5RhyBAAIIIIBAcgIEhORKzoQRQAABBBDIFyAg5BtxBAIIIIAAAskJEBCSKzkTRgABBBBAIF+AgJBvxBEIIIAAAggkJ0BASK7kTBgBBBBAAIF8AQJCvhFHIIAAAgggkJwAASG5kjNhBBBAAAEE8gUICPlGHIEAAggggEByAgSE5ErOhBFAAAEEEMgXICDkG3EEAggggAACyQkQEJIrORNGAAEEEEAgX4CAkG/EEQgggAACCCQnQEBIruRMGAEEEEAAgXwBAkK+EUcggAACCCCQnAABIbmSM2EEEEAAAQTyBQgI+UYcgQACCCCAQHICBIQ6K/lnn30mQ4YMkYULF9bZmXO6CCCQqkCbNm1k9OjRstJKK6VKUJfzJiDUQdneeOMNOffcc+XBBx+UpUuXyvTp07P/0hBAAIF6EFh++eWle/fuov/dYYcd5NRTT5VvfvOb9XDqSZ8jASHS8i9evFi++OILEnek9eG0EECgegG9IrrccsvJiiuuWH1n9BBcgIAQnLS6DhcsWCAzZ86UY445JrtiQEMAAQSKLLDjjjvKpZdeKl27dpW2bdsWeap1NzcCQkQl03Bw9tlny4QJE2T27NkRnRmnggACCNgJdO7cWfr27Sunn346IcGOudk9ExCaTWbzgSVLlmT/QG666SabAegVAQQQiFzg4IMPzv5AatWqVeRnmsbpERAiqPOLL74oRx11lDz00EMRnA2ngAACCNROQG85jB8/Xrp161a7k2DkTICAUMMvgj6E+PDDD2fhQEMCDQEEEEBApEePHnLFFVfI9ttvnz3ESKuNAAGhNu7ZGwr6nMGgQYPkzjvvrNFZMCwCCCAQp8A+++wjF198sXTp0iXOE0zgrAgINSqyPpA4ePBgGTt2bI3OgGERQACBuAUGDhyYLbDE2w21qRMBoQbuevVAH8aZOHFiDUZnSAQQQKB+BPr06ZM9vM2tBv+aERD8zeX3v/999sYCDQEEEEAgX+DGG2/M/qii+QoQEHy95dNPP5WNN95Y5syZ4zwywyGAAAL1KaDLMs+YMUNWXnnl+pxAnZ41AcG5cHq57JZbbnEeleEQQACB+hY46KCDuC3rXEICgiP4Y489JgMGDJBnn33WcVSGQgABBOpfYIsttsge6t52223rfzJ1MgMCgmOhzjvvPBk2bJjjiAyFAAIIFEdgxIgRcsoppxRnQpHPhIDgVKAPP/wwCwe6KQkNAQQQQKD5ArqJnYaE1VZbrfkf5hPNFiAgNJus+R/Q1xqnTp0qvXv3bv6H+QQCCCCAQIPAlClTZLfdduO1R4fvBAHBAVkDwr333it77LGHw2gMgQACCBRXYPLkybL77rsTEBxKTEBwQF60aFF2WezMM890GI0hEEAAgeIKDB8+PLtd27p16+JOMpKZERAcCjF//vxsZ7L333/fYTSGQAABBIor0KFDB3n55ZelXbt2xZ1kJDMjIDgUYt68eaJfahoCCCCAQPUC+sdW+/btq++IHr5WgIDg8AUhIDggMwQCCCQjQEDwKTUBwcGZgOCAzBAIIJCMAAHBp9QEBAdnAoIDMkMggEAyAgQEn1ITEBycCQgOyAyBAALJCBAQfEpNQHBwJiA4IDMEAggkI0BA8Ck1AcHBmYDggMwQCCCQjAABwafUBAQHZwKCAzJDIIBAMgIEBJ9SExAcnAkIDsgMgQACyQgQEHxKTUBwcCYgOCAzBAIIJCNAQPApNQHBwZmA4IDMEAggkIwAAcGn1AQEB+eYAsJGG20kM2fOdJg1QyCAQJEEunbtKq+88koUUyIg+JSBgODgTEBwQGYIBBAwFSAgmPJG2TkBwaEsBAQHZIZAAAFTAQKCKW+UnRMQHMpCQHBAZggEEDAVICCY8kbZOQHBoSwEBAdkhkAAAVMBAoIpb5SdExAcykJAcEBmCAQQMBUgIJjyRtk5AcGhLAQEB2SGQAABUwECgilvlJ0TEBzKQkBwQGYIBBAwFSAgmPJG2TkBwaEsBAQHZIZAAAFTAQKCKW+UnRMQHMpCQHBAZggEEDAVICCY8kbZOQHBoSwEBAdkhkAAAVMBAoIpb5SdExAcykJAcEBmCAQQMBUgIJjyRtk5AcGhLAQEB2SGQAABUwECgilvlJ0TEBzKQkBwQGYIBBAwFSAgmPJG2TkBwaEsBAQHZIZAAAFTAQKCKW+UnRMQHMpCQHBAZggEEDAVICCY8kbZOQHBoSwEBAdkhkAAAVMBAoIpb5SdExAcykJAcEBmCAQQMBUgIJjyRtk5AcGhLAQEB2SGQAABUwECgilvlJ0TEBzKQkBwQGYIBBAwFSAgmPJG2TkBwaEsBAQHZIZAAAFTAQKCKW+UnRMQHMpCQHBAZggEEDAVICCY8kbZOQHBoSwEBAdkhkAAAVMBAoIpb5SdExAcykJAcEBmCAQQMBUgIJjyRtk5AcGhLAQEB2SGQAABUwECgilvlJ0TEBzKQkBwQGYIBBAwFSAgmPJG2TkBwaEsBAQHZIZAAAFTAQKCKW+UnRMQHMpCQHBAZggEEDAVICCY8kbZOQHBoSwEBAdkhkAAAVMBAoIpb5SdExAcykJAcEBmCAQQMBUgIJjyRtk5AcGhLAQEB2SGQAABUwECgilvlJ0TEBzKQkBwQGYIBBAwFSAgmPJG2TkBwaEsBAQHZIZAAAFTAQKCKW+UnRMQHMpCQHBAZggEEDAVICCY8kbZOQHBoSwEBAdkhkAAAVMBAoIpb5SdExAcykJAcEBmCAQQMBUgIJjyRtk5AcGhLAQEB2SGQAABUwECgilvlJ0TEBzKQkBwQGYIBBAwFSAgmPJG2TkBwaEsBAQHZIZAAAFTAQKCKW+UnRMQHMpCQHBAZggEEDAVICCY8kbZOQHBoSwEBAdkhkAAAVMBAoIpb5SdExAcykJAcEBmCAQQMBUgIJjyRtk5AcGhLAQEB2SGQAABUwECgilvlJ0TEBzKQkBwQGYIBBAwFSAgmPJG2TkBwaEsBAQHZIZAAAFTAQKCKW+UnRMQHMpCQHBAZggEEDAVICCY8kbZOQHBoSwEBAdkhkAAAVMBAoIpb5SdExAcykJAcEBmCAQQMBUgIJjyRtk5AcGhLAQEB2SGQAABUwECgilvlJ0TEBzKQkBwQGYIBBAwFSAgmPJG2TkBwaEsBAQHZIZAAAFTAQKCKW+UnRMQHMpCQHBAZggEEDAVICCY8kbZOQHBoSwEBAdkhkAAAVMBAoIpb5SdExAcykJAcEBmCAQQMBUgIJjyRtk5AcGhLAQEB2SGQAABUwECgilvlJ0TEBzKQkBwQGYIBBAwFSAgmPJG2TkBwaEsBAQHZIZAAAFTAQKCKW+UnRMQHMpCQHBAZggEEDAVICCY8kbZOQHBoSwEBAdkhkAAAVMBAoIpb5SdExAcykJAcEBmCAQQMBUgIJjyRtk5AcGhLAQEB2SGQAABUwECgilvlJ0TEBzKQkBwQGYIBBAwFSAgmPJG2TkBwaEsBAQHZIZAAAFTAQKCKW+UnRMQHMpCQHBAZggEEDAVICCY8kbZOQHBoSwEBAdkhkAAAVMBAoIpb5SdExAcykJAcEBmCAQQMBUgIJjyRtk5AcGhLAQEB2SGQAABUwECgilvlJ0TEBzKQkBwQGYIBBAwFSAgmPJG2TkBwaEsBAQHZIZAAAFTAQKCKW+UnRMQHMpCQHBAZggEEDAVICCY8kbZOQHBoSwEBAdkhkAAAVMBAoIpb5SdExAcykJAcEBmCAQQMBUgIJjyRtk5AcGhLAQEB2SGQAABUwECgilvlJ0TEBzKQkBwQGYIBBAwFSAgmPJG2TkBwaEsBAQHZIZAAAFTAQKCKW+UnRMQHMpCQHBAZggEEDAVICCY8kbZOQHBoSwEBAdkhkAAAVMBAoIpb5SdExAcykJAcEBmCAQQMBUgIJjyRtk5AcGhLAQEB2SGQAABUwECgilvlJ0TEBzKQkBwQGYIBBAwFSAgmPJG2TkBwaEsBAQHZIZAAAFTAQKCKW+UnRMQHMpCQHBAZggEEDAVICCY8kbZOQHBoSwEBAdkhkAAAVMBAoIpb5SdExAcykJAcEBmCAQQMBUgIJjyRtk5AcGhLAQEB2SGQAABUwECgilvlJ0TEBzKQkBwQGYIBBAwFSAgmPJG2TkBwaEsBAQHZIZAAAFTAQKCKW+UnRMQHMpCQHBAZggEEDAVICCY8kbZOQHBoSwEBAdkhkAAAVMBAoIpb5SdExAcykJAcEBmCAQQMBUgIJjyRtk5AcGhLAQEB2SGQAABUwECgilvlJ0TEBzKQkBwQGYIBBAwFSAgmPJG2TkBwaEsBAQHZIZAAAFTAQKCKW+UnRMQHMpCQHBAZggEEDAVICCY8kbZOQHBoSwEBAdkhkAAAVMBAoIpb5SdExAcykJAcEBmCAQQMBUgIJjyRtk5AcGhLAQEB2SGQAABUwECgilvlJ0TEBzKQkBwQGYIBBAwFSAgmPJG2TkBwaEsBAQHZIZAAAFTAQKCKW+UnRMQHMpCQHBAZggEEDAVICCY8kbZOQHBoSwEBAdkhkAAAVMBAoIpb5SdExAcykJAcEBmCAQQMBUgIJjyRtk5AcGhLAQEB2SGQAABUwECgilvlJ0TEBzKQkBwQGYIBBAwFSAgmPJG2TkBwaEsBAQHZIZAAAFTAQKCKW+UnRMQHMpCQHBAZggEEDAVICCY8kbZOQHBoSwEBAdkhkAAAVMBAoIpb5SdExAcykJAcEBmCAQQMBUgIJjyRtk5AcGhLAQEB2SGQAABUwECgilvlJ0TEBzKQkBwQGYIBBAwFSAgmPJG2TkBwaEsBAQHZIZAAAFTAQKCKW+UnRMQHMpCQHBAZggEEDAVICCY8kbZOQHBoSwEBAdkhkAAAVMBAoIpb5SdExAcykJAcEBmCAQQMBUgIJjyRtk5AcGhLAQEB2SGQAABUwECgilvlJ0TEBzKQkBwQGYIBBAwFSAgmPJG2TkBwaEsBAQHZIZAAAFTAQKCKW+UnRMQHMpCQHBAZggEEDAVICCY8kbZOQHBoSwEBAdkhkAAAVMBAoIpb5SdExAcykJAcEBmCAQQMBUgIJjyRtk5AcGhLAQEB2SGQAABUwECgilvlJ0TEBzKQkBwQGYIBBAwFSAgmPJG2TkBwaEsBAQHZIZAAAFTAQKCKW+UnRMQHMpCQHBAZggEEDAVICCY8kbZOQHBoSwEBAdkhkAAAVMBAoIpb5SdExAcykJAcEBmCAQQMBUgIJjyRtk5AcGhLAQEB2SGQAABUwECgilvlJ0TEBzKQkBwQGYIBBAwFSAgmPJG2TkBwaEsBAQHZIZAAAFTAQKCKW+UnRMQHMpCQHBAZggEEDAVICCY8kbZOQHBoSwEBAdkhkAAAVMBAoIpb5SdExAcykJAcEBmCAQQMBUgIJjyRtk5AcGhLAQEB2SGQAABUwECgilvlJ0TEBzKQkBwQGYIBBAwFSAgmPJG2TkBwaEsBAQHZIZAAAFTAQKCKW+UnRMQHMpCQHBAZggEEDAVICCY8kbZOQHBoSwEBAdkhkAAAVMBAoIpb5SdExAcykJAcEBmCAQQMBUgIJjyRtk5AcGhLAQEB2SGQAABUwECgilvlJ0TEBzKQkBwQGYIBBAwFSAgmPJG2TkBwaEsBAQHZIZAAAFTAQKCKW+UnRMQHMpCQHBAZggEEDAVICCY8kbZOQHBoSwEBAdkhkAAAVMBAoIpb5SdExAcykJAcEBmCAQQMBUgIJjyRtk5AcGhLAQEB2SGQAABUwECgilvlJ0TEBzKQkBwQGYIBBAwFSAgmPJG2TkBwaEsBAQHZIZAAAFTAQKCKW+UnRMQHMpCQHBAZggEEDAVICCY8kbZOQHBoSwEBAdkhkAAAVMBAoIpb5SdExAcykJAcEBmCAQQMBUgIJjyRtk5AcGhLAQEB2SGQAABUwECgilvlJ0TEBzKQkBwQGYIBBAwFSAgmPJG2TkBwaEsBAQHZIZAAAFTAQKCKW+UnRMQHMpCQHBAZggEEDAVICCY8kbZOQHBoSwEBAdkhkAAAVMBAoIpb5SdExAcykJAcEBmCAQQMBUgIJjyRtk5AcGhLAQEB2SGQAABUwECgilvlJ0TEBzKQkBwQGYIBBAwFSAgmPJG2TkBwaEsBAQHZIZAAAFTAQKCKW+UnRMQHMpCQHBAZggEEDAVICCY8kbZOQHBoSwEBAdkhkAAAVMBAoIpb5SdExAcykJAcEBmCAQQMBUgIJjyRtk5AcGhLAQEB2SGQAABUwECgilvlJ0TEBzKQkBwQGYIBBAwFSAgmPJG2TkBwaEsBAQHZIZAAAFTAQKCKW+UnRMQHMpCQHBAZggEEDAVICCY8kbZOQHBoSwEBAdkhkAAAVMBAoIpb5SdExAcykJAcEBmCAQQMBUgIJjyRtk5AcGhLAQEB2SGQAABUwECgilvlJ0TEBzKQkBwQGYIBBAwFSAgmPJG2TkBwaEsBAQHZIZAAAFTAQKCKW+UnRMQHMpCQHBAZggEEDAVICCY8kbZOQHBoSwEBAdkhkAAAVMBAoIpb5SdExAcykJAcEBmCAQQMBUgIJjyRtk5AcGhLAQEB2SGQAABUwECgilvlJ0TEBzKQkBwQGYIBBAwFSAgmPJG2TkBwaEsBAQHZIZAAAFTAQKCKW+UnRMQHMpCQHBAZggEEDAVICCY8kbZOQHBoSwEBAdkhkAAAVMBAoIpb5SdExAcykJAcEBmCAQQMBUgIJjyRtk5AcGhLAQEB2SGQAABUwECgilvlJ0TEBzKQkBwQGYIBBAwFSAgmPJG2TkBwaEsMQWE1q1bi/5DpyGAAALNEZg5c6YsWrSoOR8xO/b999+X9u3bm/VPx/8UICA4fBNiCggO02UIBBBAwFSAgGDK29A5AcHBmYDggMwQCCCQjAABwafUBAQHZwKCAzJDIIBAMgIEBJ9SExAcnAkIDsgMgQACyQgQEHxKTUBwcCYgOCAzBAIIJCNAQPApNQHBwZmA4IDMEAggkIwAAcGn1AQEB2cCggMyQyCAQDICBASfUhMQHJwJCA7IDIEAAskIEBB8Sk1AcHAmIDggMwQCCCQjQEDwKTUBwcGZgOCAzBAIIJCMAAHBp9QEBAdnDQgdO3aUJUuWOIzGEAgggEBxBVq1aiVz585lqWWHEhMQHJAXLFggRx11lEyYMMFhNIZAAAEEiivQt29fufLKK6Vt27bFnWQkMyMgOBXi3nvvld69ezuNxjAIIIBAMQUmT54su+++uyy33HLFnGBEsyIgOBWDgOAEzTAIIFBogSlTpmQBgWYvQECwN85GeOedd2To0KFy/fXXO43IMAgggECxBA4//HC54IILsme6aPYCBAR744YRRowYIaeeeqrjiAyFAAIIFEfg3HPPlWHDhhVnQpHPhIDgWKCbbrpJBg8eLG+//bbjqAyFAAII1L/AOuusI2PGjJE+ffrU/2TqZAYEBOdCHXTQQTJp0iTnURkOAQQQqG8BDQY333xzfU+izs6egOBcsIcfflh+9KMfyXvvvec8MsMhgAAC9SmwxhpryB133CHbbbddfU6gTs+agFCDwl144YUyZMiQGozMkAgggED9CYwePVqOP/74+jvxOj9jAkKNCtiuXTv54IMPajQ6wyKAAAL1IbD66qvL/Pnz6+NkC3aWBIQaFVTDwQ9/+EN56qmnanQGDIsAAgjELbDVVlvJ/fffLxoSaP4CBAR/82zEL774Qp577jnp16+fPPnkkzU6C4ZFAAEE4hTo1auXjB8/XjbffHNWTaxRiQgINYLXYRcvXiy6Kpg+jzBz5swanglDI4AAAvEIdO3aVfS5A12efsUVV4znxBI7EwJCjQuuIeFvf/ub7LfffqJbmNIQQACBlAU6dOggt99+u3z7298mHNT4i0BAqHEByofXV3kICREVhFNBAAFXAQ0HvALuSv61gxEQ4qlF9qSuXkl44YUXZN68eRGdGaeCAAII2Am0b99eevTokV050De8aHEIEBDiqEN2Fvrgol5B0H8kI0eOlJdffjmis+NUEEAAgfAC3bp1k5NPPjn740ivILCNc3jjlvZIQGipnPHnHnnkkWzPBl2aeenSpcaj0T0CCCDgL3DrrbfK2muvzQqJ/vRNGpGA0CSm2h30xhtvZEFh+PDhcvfdd9fuRBgZAQQQCCCgbyacffbZopsvderUKUCPdGElQECwkjXoV29BaNt+++1l1qxZBiPQJQIIIBBeoHPnzqL70KywwgrhO6dHMwECghktHSOAAAIIIFC/AgSE+q0dZ44AAggggICZAAHBjJaOEUAAAQQQqF8BAkL91o4zRwABBBBAwEyAgGBGS8cIIIAAAgjUrwABoX5rJ4sWLZLPP/+8jmfAqSOAQJEF9K2F1q1bF3mKhZ4bASHC8pZeZ5wxY4ZMmDDhK8/w008/Ff0/GgIIIBCjwMorryz6f1/V+vbtK5tsskmMp845iQgBIaKvwYIFC+T888/PdnfUNnfuXHn88ccjOkNOBQEEEAgnsM0220jHjh2zDnX3xhNPPFHatm0bbgB6qkqAgFAVX5gPjxkzRkaNGiULFy6UDz/8MLt1QEMAAQRSEtBbEauttpq0adNGhg4dKscdd1xK049yrgSEGpVFl1D+4x//KEcccUSNzoBhEUAAgbgFrrnmGvnBD34g6623Hps41aBUBARn9Ndee02ef/552XfffZ1HZjgEEECgPgX+8Ic/yOabby7rr79+fU6gTs+agOBYuD//+c/ym9/8RqZNm8ZtBEd3hkIAgfoW0NsPu+66q5x00knyve99r74nU0dnT0BwKtaTTz4phx56qLz88stOIzIMAgggUCyBbt26yQ033CC9evUq1sQinQ0BwaEw8+fPl4033ljee+89h9EYAgEEECiuwBprrCH6Cni7du2KO8lIZkZAcCjEM888I1tuuaXDSAyBAAIIFF/g6aeflp49exZ/ojWeIQHBoQDLLbecwygMgQACCKQjUFpQLp0Z+8+UgOBgTkBwQGYIBBBISoCAYF9uAoKxcf/+/eWqq64yHoXuEUAAgbQEfvazn8m4cePSmrTzbAkIxuAbbrihzJo1y3gUukcAAQTSEthggw3k1VdfTWvSzrMlIBiCv/vuu9nrOLpqIg0BBBBAIJxAp06dRF8fX3PNNcN1Sk/LCBAQDL8QulOZvrPLvTJDZLpGAIEkBfTZLl1b5ut2vE0SJuCkCQgBMSu7+vGPfywTJ040HIGuEUAAgXQF+vTpIzfffHO6AMYzJyAYAeva4YMGDZI5c+YYjUC3CCCAQNoCuonTRRddJAcccEDaEEazJyAYweqeCyeffLJR73SLAAIIIKACv/71r/lZa/RVICAYwC5cuFDOPPNMGTlypEHvdIkAAgggUBLQP8SGDx8ubdq0ASWwAAEhMKh298ADD8jee+8tH3/8sUHvdIkAAgggUBJYddVV5a677pKdd94ZlMACBITAoNqdbue82267GfRMlwgggAAClQJTp07NtoOmhRUgIIT1lAULFog+WXvPPfcE7pnuEEAAAQQaE9hzzz2zN8batm0LUEABAkJATO3qgw8+kPbt27P2QWBXukMAAQS+SkDXRJg3b56svvrqIAUUICAExNSuXnjhBfnWt74VuFe6QwABBBD4OoHnn39eevToAVJAAQJCQEztarPNNpPp06cH7pXuEEAAAQS+TqB79+7y4osvghRQgIAQEFO7YmvnwKB0hwACCDRRgGXtmwjVxMMICE2Easpho0aNkhNOOKEph3IMAggggEBggQsuuECGDh0auNd0uyMgBKz9JptsIjNmzAjYI10hgAACCDRVYOONN5a///3vTT2c43IECAiBviL6BO3WW28tr732WqAe6QYBBBBAoDkC66+/vjzxxBPZm2S06gUICNUbZj2cfvrpope3Pv3000A90g0CCCCAQHMEVl55ZTnxxBPlrLPOas7HOPYrBAgIAb4a+mCM7kt+0003BeiNLhDJg0e+AAAgAElEQVRAAAEEWipw8MEHy4033tjSj/O5MgECQoCvg17SOuqoo+Spp54K0BtdIIAAAgi0VGDLLbeUsWPHZrd8adUJEBCq88s+rW8v6GUtXrEJgEkXCCCAQBUC+qr5+eefz9sMVRiWPkpAqBJx0aJFcu6550Zxz+sb3/iGfPOb36xyRpIt9FQedvTBn9BrnFcuaLLhhhuK3j8M2SrH6Nq1q7Ru3TrkEF9amEWfol5hhRVMx9h0001l+eWXNx1DF/wK2ZYuXSovvfTSMl2GHuPzzz//0ltEocfQf+8zZ840nYc+x/Tqq6+ajqF7xpQ/UK2/VHWhoWrbnDlz5KOPPqq2m6o/f8YZZ8ipp54a/N971SdWZx0QEKos2LPPPps9fxDD6okHHHCATJo0qcoZiayyyirZplOl9pe//EV22mmnqvstdaDho/IXnN6e0UuDIVvlolUvv/yyaEgI2SrHePvtt2WttdYKOcSXFt/SbcS1RiFb5TxCXw375JNPRLflLW+hx3jnnXdk7bXXNh1Dv0MaAi3n8fTTT8tWW21lOsZf//pX+e53v9swhv4BoN+rahd6O/DAA+XWW28N+dVsUV8adm644QbZYostWvR5PvRPAQJCld+EP/7xj/LDH/6wyl6q/7j+wtArGYMHD66qs6uvvloGDhwoixcvzvrZYIMNsn/wPXv2rKrf8g/rX5Llf63olYNHH3006D/mxkJIPQaExuZRlICgVxWq/YVU/r3yCAh69aBbt26mv7z1j47vfOc7y7wRpf9mdJ2VUO2ZZ54R/YNi1qxZWZcrrriiXHrppTJgwICqhvjd736X/eWugbDW7f7775cf/OAHtT6Nuh6fgFBF+fRyo75Oo7+Ya906deokulnJaqutVtWp7LbbbjJt2rSGPk477TQZNmyYtGnTpqp+yz+sP5huu+22hv9JVz4bPny46C2SUO2uu+6SffbZp6G7bbbZRv7whz/IOuusE2qIrB/rKwgEhKaXyyMgvPXWW9kvVg20pabftb322qvpJ5pzpF6iP/PMM7Nnm0pt//33D/qX+cKFC2XEiBFyzjnnNIyhf+jcd999Vc3jww8/zDare+ONN6rqJ8SHTzrpJDn77LO5zVAFJgGhCrz/+7//k3bt2on+JVTr1rlzZ3n99derOg39ZfT9739fHnjggYZ+Ro8eLccff3xV/VZ+uFevXsu88XHllVdK//79g/41qVcoyu95X3/99fKf//mfQcfQe7h6haXU9Afjn//85+CLtFSGkKJcQQh9i0EXK9O/GPUv8FILfdVIz/n3v/+9HHbYYQ1j6DMhIW8x6hjjxo3L3owqNb3l8OSTTwb9d3jhhRfKkCFDGvrceeeds+9vta1Lly4ye/bsarup+vN6G3P+/PnyH//xH1X3lWoHBIQqKq+/kPUBvhjaZZddJj//+c+rOhW93Kj3EPUeqDa9LzlmzJjsl3eopj/89PWj8ldCNSBUe2mz8vz0PrH+cig1vR+p70eHvKT9y1/+Ui6++OKGMfSvFX2bZaWVVgrFlfVDQGgap17R00D73//93w0f+MUvfpFdOg/V9Pur79hr2Cw1veUQeol1fU3POiBoCDnuuOManjfS24i33HKLbLTRRlVx/c///I+oewxNQ7wGFlrLBAgILXPLPqV/RUyYMKGKHsJ9tNq/xvTzeqlff8CWWu/evWX8+PFBL8vr09l77rlnww9UfXBNA4I+6BmyVQYE/avvkEMOCRoQ1l13XdFLzqV25513yt577x1yGl8KCPoWhv6lXI8PKa655pqil7ZLrdrvbGPQlbeW9JbSm2++GbQmGhDKv68WAUEDrQYEvVqkTb/P99xzj+jbPqGaPlB75JFHypQpUxq61CsKemuj2iBd7edDzbFv376iVw9pLRMgILTM7Us/uKvopuqP6lWM0sNGLe2ssYCgAei6665raZeNfk6f2fj1r3/d8ItCf6Hq1Y8Qr2eWD9jYFQQNCCFbZUC44447soAQ8oejhoEOHTo0nLb+MtIHzEI+E6KdW7/FoMFArxyVX4p///33g9+OKUpA0NcF9a9wnY82fZBXr4zoszoh209+8pNlfoGGCgj6M6naW56h5mkRREOdW+z9EBBaWCG9T/+9732vhZ8O+7EQryHOnTtX9JJ5+XLRFgFB35DQKwalprdFNCCEbBqW9FmK0n1Q3bjl2muvDfogmZ5vY1cQ9GG1kAHhT3/60zJPYuttkmuuucb8NkboH6qfffaZ/PSnP11mCVx9IC70G0AeAWHy5Mly+OGHy3vvvZd9bTXc6ttM1V6ar/w3oAFBL9eXml5RuOKKK0L+U5HKgPDjH/9YLrrooqpf1a18jTLoSTezM32uQp+voDVfgIDQfLPsE/pgUizbiuovd718W00rPXhV+sWglzIfeuihqn9QVJ6TR0DQ+6oaOnThHG39+vXLbp1U+4ZH5Vw8bjGcd9552Vskpabz0CDXqlWrasr9pc9aX0FYsmRJ9oun/KE4nVv58wIhJuQREPRJfZ2H3n7TprU4+uij5ZJLLgkxhYY+PALCu+++K9tvv7288sor2bj6PSg90FvNZLTfjh07VtNFsM/q66GVi3QF67zgHREQWlBgvVy6+eabN/yjakEXwT6i96T1Lxp9m6Kapvc3y38R6dP5IRZdqjwnfZCvvN8+ffpk702HbKecckpmUmpHHHHEMr+YQo2lr4SW/orUPvWBzvLFZ0KMo2FA/xorNb0/rE/qh7xKoX1XLswTel8RDZ46Dw1vpbbjjjsu85BnCC+9mlY+xhprrCFTp04N0fUyfWhQ0ys5pbbHHnuIBp6QTV+fnjhxYkOX+gCx7hobumm/5bco9fVHfU6omqZvD6iJPjha66ZXdp577rngt+VqPS+P8QkILVDW+/L6g/uDDz5owaf5CAIIIICAl8Dqq6+eXb3S2ym05gkQEJrnlR2tT8bqJXkaAggggED8Avpaqt46CX3lLf6ZV3eGBIRm+un9fn3YqvwSdjO74HAEEEAAAUcBvd3xv//7v9E8F+E49aqGIiA0k++3v/0t24g204zDEUAAgVoL6PM7//Vf/1Xr06ir8QkIzSiXPol9wQUXBH/yuhmn0HCo7luge57r09PVNn3Kt3wluNCrz+n56TKx+h58ebNY5awywOnrjvoKWuj2ox/9SHTdg1L71a9+Ffwdde1bl4kt3z5XX3u0eL3W+i0GnYu+bqb1KDX9Duty5aGb7mOg9Si1fffdN9uHI3TTh0W1HqVm8QuosdVan3jiCdHlykM2fbBT79OXmq4jEuItrcsvvzxbXTSGLaB1/ZUTTjgh+BtAIesQW18EhGZURJ/01V/IFk9FN+M0skP1KWN9wlmXQ662eSzl21hACP2uvToQEFr2bSAgNN/NIyDoWemeAuX/ViwCQmPbcYfYbVPf+NI3le6+++7mAwf+hL51pIGlfP+UwEMUrjsCQjNKWvkXUDM+GvzQ/fbbb5kdEVs6gF4VWWGFFZb5uMVmQASEllWIKwjNd6vVFQS9uqiXsEM/CFergKDriIRYb0N3orz99tubX0iDT1hdgTM41Si6JCA0sQyapvUypW71WuumC/7oAzcaEqptu+yyi+i+6aWm89M3NEJvOKTvdOvW0aW22WabyQsvvFDt6X/p80W6gqB/NWqtucXQvK9JrQKC3mLQBZRCBwT9t1K+RLVu0Rx67RBd6VJfAyxfd0FvZZXfQmleFf59tIYDfbBbF5iqdbv11ltFbw9q6KLlCxAQ8o2yI/Svar1nGkNbb731gu23XqS/UHUjKF2OthR4dBEp3W2xfFe8EPXTX9wazngGoXmatXwGQX9Jhf7FfdVVV2X7JZQWA9Jlo3UZ8ZAbKqmwft8qf6GFvj2n/Wl99LZJqYV8RqRTp07yj3/8o3lfGKOjNXDrJnG0fAECQr5RdoQuilTtaoVNHCr3MH1ASe9DVtv0/uBaa61Vk79QQ9zfrJy/1y8g3UZa1+J/9NFHs1Po3LlztszuPvvsU21JvvT5IgU4r/ro/e5jjz1W9CFYbd/+9rezVQ/1YdzQzaM+tQwI77zzTpAVCPUBZb3NGEPTVR518SRavgABId8oO6LyEnkTP2ZymG7Puvvuu1fdt278oitClv4C0uWj9fZCjx49qu67soPKv97qOSCMGzcuezJbf9Bo07+6dJMrXdY3dPP4BaTnXKSHFHWXSN10qPT2igZ7feOnf//+QcvjdQvIIyAojN7y0wWFdFlibXoFTpcPD/Gm1L333iu6fXwMzeIWTQzzsjgHAkITVUNfnmzisI0eFuryYuVT2PpqmO5joD8YQjbdkU4vxZaa/kVX+us75Dhef6E2do/b4hJ25S8gfWNFf9DqHgahm0dAePDBB7Ngu2DBguz0Q17CLvfwugXkFRB0brqh0iOPPNIwTb11pldJQjb9Q0FfBSzfUjrka8JF/Bka0j/GvggITaiK/sMJ/dBeE4Zt9JBQtxe088Ze07J4yEr/givft0I3htKVzUK3yoCgf31bPBjlFRB0Iyh9JUuff9HWvXv3bLtkvdITunkEhOeff14OOeQQefHFF7PT1/vA+uqwxZWXoq1ToVcNy//N6MOrFnvBNPaQrz7TE+KXe0y3GTSktmnTJvQ/o8L1R0BoQkn1B3Ms24W+8cYbQbZg1p31BgwYsMw2r3oZdvDgwU0Qad4hK6644jIf0KsHoRd60VeydDe9s846q2Esff/aYs8M3ZGyfBx99kCfjg7d9JeCzuHTTz/Nutb3uHUb6y5duoQeSiprtHjx4uBj6KI/+levzkvbyiuvnD01b3HpWd/GufPOOxvmcMYZZ5jshKjPotxwww3LjKNX4SpfHa4WU+/ff+c731mmG4sa/e53v8tun5WuUupOiPrgZYhdSvV5Bn1YMYa26aabLvNmSAznFOM5EBByqqL/UPQ1o1gCQoxfIs4JAQQQqCcBDQh6JSvElZF6mndzz5WAkCOm93yPOOII0fRLQwABBBCofwF9e0vfbAnxsHf9a3z1DAgIOdXVxUN0m1AaAggggEBxBA477DC57rrrijMhg5kQEAgIBl8rukQAAQTiFiAg5NeHgPA1RhdeeGG2dGoMLeRugfok/KGHHtowrW7dui2zm2Oo+epaB/pg1eOPP97QpW6WMnDgwFBDNPTz2GOPZQvilFrI1SbLT1af6D7wwAMb3o5YZ511ZM6cOUHWrK9E8doMSMf1eItBx/FaClvHWnfddeWtt97KWPWp/0mTJomudhi66UOjs2fPbuj2b3/7m2y77bahhxFdt6R8TYJtttkme13YYtlg3c1RFwQrNX0QU99ACdEq3wIK0WdL+xg9erQcf/zxLf144T9HQEgsIOgT8fpDunwtd32vXt9qCN30aXVdnKa0xKr+0tYfcnvttVfooaTyB5r+MrDYN+Ouu+5aZsVEDQhvvvlm8PlohwSE6ljLA4L2pG817L333tV12sindY+W8n1RQm2VXDmUrhCp4br835Mu2mXxFshOO+0kum5FqelCcboRlb55Um0jIFQr6Pd5AsJXWOsP/UGDBpm8vtbc8upSvrowiu5rX2175ZVX5Fvf+lbDq3Pa3+TJk01+yOjiSLpIUqn169cvCwihXwHT/iv/Ata97PUHdehGQKhOtFZXECwDwowZM760jHOoxczKtfVVXg0I48ePb/iff/7zn2evvoZulSsfajDQdSz0tcdqm+5hoj9by6+6VNtnSz+vf0Toz1YNk7QvCxAQGvlW6D9u/Yt65513juI7o3/16Hv2le+qt+TkZs6cKXpLobxZLHushsccc8wyAUE3TdKAELo1thQtAaF5ykW/xWAZEPS7pq/NlTeLgKB96i0GXZeg1KwCQmOhW285dO3atXlfrEaO1vUb9Bezhu0Y2gMPPCB6xYRXHgkITfo+xhYQ9MpBqKV89f5o5YIrBIQmfS2yg7iC0HSrxo4s4hUEr4CgnnoFoVYBQZ93KH/Op6XfhMaWwm5pXyE+R0D4akWuIDRio7sc6rr3MbT27dtnm85sscUWQU6nMiXraz76NG/o9vDDD2d/7ZQ2ftHd00aOHGnygKL+RVK+f0SrVq2yRVBC32LQH2x6H7h810aeQWjeN6eWAUEvbevVuNB/KeotBl1MbcmSJQ0Yujx7iCt+lbp6Be7kk09uWGZZbxfqg7877LBD8wrRhKP1wUTdvMniysizzz6bPWMzb968JpyJ/SEsvdy4MQEh8oAQ+hdQ5Q9HXc9dn/AO2fQXqT48pbcUSm2rrbYy2+5V72fqdsulpjtU6kNVuhlQyKZXWnRp4PKnuXVfBP1hZ9F4SLE6VQ3VpYCqPenbO7p0dein/j/66KNsGWddprjUdElpvbdt0XSZ8qeeeqqha72ioA8Dhw4+uo9J5bbIIW+dVD5EamHV1D4/+eSTaP4obOo5exxHQGhEufKvHI9CfNUYentBn5IO0fQeYuVf1VYBYezYsctcLbAMCJV7ZehVkb59+wb/gak/RPS11/JLvPoQZojtcBurLwGhum+91qn8lVrde0RfXV5llVWq67iRT0+YMGGZK3GWa/1XBgS9qqBz8wgIerWk8hmmlmJWbqjV0n5CfG7UqFHZWxq0ZQUICI18I/QStf61GEObPn36lx6Aaul57bnnntkbC6V23HHHiW7QFHp7Z+1fA4LXFYTKgKArX2pACN3effdd6dGjh+h/S013XOzQoUPoobL+CAjVsc6fP1/0Fl2p6a6ReutpzTXXrK7jyAKCBiENCKGb3ibR2xkaqkpNd5TU3VhDNN3fRv/txtD0qlL5LaIYzimGcyAgNFKF0Em8mkKHvKSnlwvLtz+eOnWq7LLLLsH/8tAtfPVSru5AV2pjxowRvfRv0bwCgu7Hsfbaay8zhZD1qbQpDwi6Na3+oLZYZErH9XqLQf/a1YVp9Dkfbd///vezZ2ysWuW83n777SC7oVaeb2NXEKw2A7roootEw32p6TbKN998c7Y1eMim3+377rsv20W01EJvMx3Tz1qLh7VD1qMWfREQKtR1BbTylf9qUZTSmLvuuqvcdtttwU5BFyoqDwj6wJ3Fq5x6T77yoamPP/442DzKO9IfYvoDUi99ltpVV10lBx98cPDx5s6dKxtuuOEy/VrNS//6Peigg0TfOtG2/vrrZwFBvxMWbdVVV3WZ17Rp07KA8Nprr2Xj6VPxt9xyi7Rr1y74tPS7UfkcyquvviodO3YMPtZNN90kP/vZzxr61Vt55QE59ICV9XrooYeCPchcfq76hH/5wmYaEEoLNYWY0/777y/6nYih6cqUuiIr7d8CBISKb4NeQtbkT0MAAQQQSEdA30R54YUX0plwE2ZKQChD+tOf/pTduy6t394EPw5BAAEEECiAgL4xpreK9LYX7Z8CBISyb4I+VKev51neV+aLhwACCCAQn4A+D6Gvi5a/pRTfWfqeEQHhX94aCo488ki55pprfCvAaAgggAACUQgcccQRcvXVVwd/cDuKybXgJAgI/0LTL4U+ZW/10FkLasNHEEAAAQQcBfThT31LRP9YpHGLoeE7oK/hDR48mO8EAggggEDCAroiZvlrpAlT8AyCFl9fX9NVtHSBHRoCCCCAQLoCujeNrqZr8Tpsvalyi0FEdJcyXZSmtHhLvRWR80UAAQQQCCOgi5Lp4l2Vu96G6b2+eiEgiIguMrLjjjvWV+U4WwQQQAABE4EHH3zQZIdMk5M17DT5gKBbBWtSLN8dzdCbrhFAAAEEIhfQzeX0yrLFlt2RT32Z00s+IOiGJCuttFI91YxzRQABBBAwFvjss89MNrIzPu2g3ScfEHQN9UMOOSQoKp0hgAACCNS3wI033miyp0s9qSQfENZdd12WVq6nbyznigACCDgI6NLLb775psNI8Q6RfECIabvReL8mnBkCCCCQnkDqy+4nHRBOOOEEGTVqVHrfemaMAAIIIJArMHToULngggtyjyvqAckGBE2GPXv2lOeee66otWVeCCCAAAJVCGy++ebyzDPPJLs3Q7IBQff93nfffWXWrFlVfH34KAIIIIBAUQU22GADueOOO6RHjx5FneLXzivZgHDyySfLhRdeKPqaIw0BBBBAAIFKgdatW8vxxx8vI0eOTBIn2YDQr1+/bFtPGgIIIIAAAl8loDs7jh8/PkmgJAPCX//6Vzn66KPlxRdfTLLoTNpfYPnll5f27dv7D1zAEefNmydLly4t4MyYUowCm222mVx++eWy0047xXh6pueUZEC45JJLZNCgQaawdI5AuUDnzp3l9ddfByWAQJcuXWT27NkBeqILBJomcPHFF8uxxx7btIMLdFRyAeHjjz+Ws846S84///wClZGpxC6w4YYbyiuvvBL7adbF+W200Uby6quv1sW5cpLFEDjxxBPljDPOkFVXXbUYE2riLJILCM8++6zsueeeya+Q1cTvB4cFEpg6darsuuuugXpLu5tp06bJbrvtljYCs3cV0BV377nnHtliiy1cx631YMkFBN2ha7vttqu1O+MnJpD6imyhy80KqKFF6S9P4JFHHsl2/k2pJRUQ9MGmIUOGyJgxY1KqMXOtscAqq6wiemuLFk5AL/V+8skn4TqkJwRyBI477jgZPXq06APHqbSkAsLnn3+e/P7eqXyxY5qnviKlr0rRwgnoK8r6qjINAU+BxYsXyworrOA5ZE3HSiogPPnkk7L11lvXFJzB0xN45513pGPHjulN3HDGc+fOlbXWWstwBLpG4MsCTzzxhPTq1SsZmqQCwlZbbSVPP/10MsVlorUXaNWqVbad+Jprrln7kynQGbz77rui2/EuWbKkQLNiKrELbLnllvLUU0/FfprBzi+ZgKAPiaV07yjYN4SOqhK47rrr5NBDDxUNCrRwAhoMbrjhBvnJT34SrlN6QqAJAvosWyoPySYTEKZMmSJ77LFHE8rPIQiEE7j77ruz12pp4QX0tbO99torfMf0iMDXCEyePFl69+6dhFESAUGvHujtBd22k4aAl4DeVpg4caLsvPPOXkMmNc4DDzwgffr0Eb3dQEPAS6Bnz57ZbYYUriIkERDef/99+e53vyvTp0/3+g4xDgIyYMAA+c1vfiPt2rVDw0Bg/vz5ctJJJ8nYsWMNeqdLBBoX6N69u/zlL3+RDh06FJ4oiYBw3nnnyTnnnCMLFiwofEGZYDwCZ599tpx22mnxnFABz0T/XZ9++ukFnBlTilWgbdu22b/rU045JdZTDHZeSQQE/Utu3LhxwdDoCIE8Ab38qL+8hg0blnco//8qBEaMGJH9sGalyioQ+WizBfr375/ElavCBwTd9W3gwIGiDynSEPAS2G+//eS2227zGi7pcfbff3+5/fbbkzZg8r4C+pDiFVdcIbpLa5Fb4QPCZZddJsccc0yRa8jcIhQgIPgVhYDgZ81I/xa49NJL5Re/+EWhSQodEHRpZd13YejQoYUuIpOLS2CllVYS3R5Wn0Gg2QsMHz5cRo4cKZ999pn9YIyAwL8ERo0aJbo/Q5GXXi50QHjppZdE/5KbMWMGX2oE3AR0CWBd1lu3iKXZC+hKlfoasy5pTUPAS2DjjTfObm1tuummXkO6j1PYgKAPLT322GPJbc/p/g1iwC8JrLfeejJnzpwk3pOOpfydOnWSf/zjH7GcDueRiMCjjz4q2267bWH/rRc6IFx//fVy+OGHJ/JVZZqxCOie8bp3PM1PYLvtthP9YU1DwFPg2muvlcMOO4yA4IkeYiz2XgihSB8tEeCVu5aoVf+ZFFa2q16JHkILFHlvhsJeQVi0aJHow2I0BLwFCAje4v8cj4BQG/fUR9WHY1u3bl1IhsIGhF133VXuu+++QhaNScUrcMABB8ikSZPiPcECn9mBBx4ot956a4FnyNRiFNhll11k2rRpMZ5a1edU2IDAXxNVfzfooAUCs2bNkvXXX78Fn+Qj1Qq89tprssEGG1TbDZ9HoNkCRb1qWMiAoKsndunSpdlF5gMIVCvw9ttvi77mSPMX0Ncc1157bf+BGTF5gddff72QqyoWMiD06tUr246ThoCnwA477CB33XWXrL766p7DMta/BD744APZe++95aGHHsIEAVcBXYdD1z4pWiMgFK2izKdmAnoPvGvXrjUbn4FFZs6cyTMgfBHcBQgI7uQtG3D06NGiS69+9NFHLeuATyGAAAIIINAMgW984xty5plnypAhQ5rxqfgPLdwVBN258corr4xfnjNEAAEEECiMwFFHHZXt8FikVqiAoJszaUAYP358kWrEXBBAAAEEIhfo169fFhCKtHlToQKC3n88+uij5f7774/8q8TpIYAAAggUSUDXQ7j88stlo402Ksy0ChUQnnjiiSwg6H9pCCCAAAIIeAlsvfXWWUDQ/xalFSog6G5uGhD0VbOmNH3qfNCgQU05lGMQQAABBBITuOyyy+Tmm29u0qz32muvLCDozqJFaYUKCLqalT6DMHbs2CbVR9fP1nW0aQgggAACCFQK6H4+uq9PU9qAAQOygLD88ss35fC6OKZQAUHFm/sWg15FuOWWW+qiWJwkAggggIC9gP6xefDBB8vEiRObPBhvMTSZqnYHnnPOOTJixAhZuHBhk06iVatWcvfdd8vuu+/epOM5CAEEEECg2AL33nuv6C2DJUuWNGmibdq0kWHDhslpp53WpOPr5aDCXUHQNbF79+4tf//735tcg3XWWUcuueQS0Z34aAgggAAC6QrojqDHHnusvPXWW01G2GSTTWTKlCmF2wOocAFBLw3pU6TN3Yth3XXXlXHjxskee+zR5C8FByKAAAIIFEdg8uTJ0r9/f3nzzTebNSmWWm4WV20P1tsLbdu2bfZJ6EOLusjFJ5980uzP8gEEEEAAgfoVWGWVVUQX22vqQ4nlM12wYIHobYaitcJdQSgVqHv37vLSSy+1uF66I98vf/lL0YcYNTgst9xyLe6LDyKAAH9pUQkAAAVLSURBVAIIxCOgV5o1CEyaNEkuuugi0Z1AW9o23XRTmT59eks/HvXnChsQ9AuwzTbbFHILzqi/UZwcAgggkIhAr1695PHHHy/sH5CFDgi33347Dx4m8g+VaSKAAALeAvpA43777UdA8IYPMZ5u+fyrX/1Kfvvb34bojj4QQAABBBDIBIYOHSrDhw8X3eq5qK2wVxC0YHqbQd9j1QUsrr766qLWkHkhgAACCDgKHHnkkXLllVcWaufGxvgKHRBKE9ag0KdPn+yBFBoCCCCAAAItFUhp9d0kAkLpasJPf/pTufbaa1v6veBzCCCAAAIJCxx++OFyzTXXJCOQTEDQii5dulROPPFEGT16dHb7gYYAAggggECegL7mPmTIEDn//PMLtRlT7ry/SOw3pT64+Mwzz8i5554rumoWDQEEEEAAga8S0NV1Tz31VOnZs2ehH0hsbP5JXUEoAZQeXtQ0qBts0BBAAAEEEKgUOOuss+SUU04R3dQvxcXykgwI5V8Cve1wxRVXyKWXXpotsTx79uxsuU0aAggggEA6ArrMfufOnUWXXD7mmGNk4MCBSd1O4ApCznddl8vUsFDNspvp/HNipggggEBxBHR5fQ0Fukw/7Z8CyV9B+LovQunxjBQvLfEPBAEEECiyAD/f86tLQMg34ggEEEAAAQSSEyAgJFdyJowAAggggEC+AAEh34gjEEAAAQQQSE6AgJBcyZkwAggggAAC+QIEhHwjjkAAAQQQQCA5AQJCciVnwggggAACCOQLEBDyjTgCAQQQQACB5AQICMmVnAkjgAACCCCQL0BAyDfiCAQQQAABBJITICAkV3ImjAACCCCAQL4AASHfiCMQQAABBBBIToCAkFzJmTACCCCAAAL5AgSEfCOOQAABBBBAIDkBAkJyJWfCCCCAAAII5AsQEPKNOAIBBBBAAIHkBAgIyZWcCSOAAAIIIJAvQEDIN+IIBBBAAAEEkhMgICRXciaMAAIIIIBAvgABId+IIxBAAAEEEEhOgICQXMmZMAIIIIAAAvkCBIR8I45AAAEEEEAgOQECQnIlZ8IIIIAAAgjkCxAQ8o04AgEEEEAAgeQECAjJlZwJI4AAAgggkC9AQMg34ggEEEAAAQSSEyAgJFdyJowAAggggEC+AAEh34gjEEAAAQQQSE6AgJBcyZkwAggggAAC+QIEhHwjjkAAAQQQQCA5AQJCciVnwggggAACCOQLEBDyjTgCAQQQQACB5AQICMmVnAkjgAACCCCQL0BAyDfiCAQQQAABBJITICAkV3ImjAACCCCAQL4AASHfiCMQQAABBBBIToCAkFzJmTACCCCAAAL5AgSEfCOOQAABBBBAIDkBAkJyJWfCCCCAAAII5AsQEPKNOAIBBBBAAIHkBAgIyZWcCSOAAAIIIJAvQEDIN+IIBBBAAAEEkhMgICRXciaMAAIIIIBAvgABId+IIxBAAAEEEEhOgICQXMmZMAIIIIAAAvkCBIR8I45AAAEEEEAgOQECQnIlZ8IIIIAAAgjkCxAQ8o04AgEEEEAAgeQECAjJlZwJI4AAAgggkC9AQMg34ggEEEAAAQSSEyAgJFdyJowAAggggEC+AAEh34gjEEAAAQQQSE6AgJBcyZkwAggggAAC+QIEhHwjjkAAAQQQQCA5AQJCciVnwggggAACCOQLEBDyjTgCAQQQQACB5AQICMmVnAkjgAACCCCQL0BAyDfiCAQQQAABBJITICAkV3ImjAACCCCAQL4AASHfiCMQQAABBBBIToCAkFzJmTACCCCAAAL5AgSEfCOOQAABBBBAIDmB/weuSI/YqQrr5AAAAABJRU5ErkJggg==;" parent="1" vertex="1">
                    <mxGeometry x="10" y="300" width="100" height="100" as="geometry"/>
                </mxCell>
                <mxCell id="8" value="Docker Services" style="rounded=0;whiteSpace=wrap;html=1;align=left;verticalAlign=bottom;" parent="1" vertex="1">
                    <mxGeometry x="170" y="10" width="980" height="800" as="geometry"/>
                </mxCell>
                <mxCell id="10" value="HTTP&lt;br&gt;Port: 8080" style="rounded=0;whiteSpace=wrap;html=1;" parent="1" vertex="1">
                    <mxGeometry x="120" y="480" width="100" height="90" as="geometry"/>
                </mxCell>
                <mxCell id="11" value="" style="endArrow=classic;startArrow=classic;html=1;exitX=0;exitY=0.5;exitDx=0;exitDy=0;entryX=0.5;entryY=1;entryDx=0;entryDy=0;" parent="1" source="10" target="7" edge="1">
                    <mxGeometry width="50" height="50" relative="1" as="geometry">
                        <mxPoint x="50" y="480" as="sourcePoint"/>
                        <mxPoint x="100" y="430" as="targetPoint"/>
                    </mxGeometry>
                </mxCell>
                <mxCell id="12" value="Angular:4200" style="rounded=0;whiteSpace=wrap;html=1;" parent="1" vertex="1">
                    <mxGeometry x="190" y="315" width="100" height="70" as="geometry"/>
                </mxCell>
                <mxCell id="14" value="Rest-api:8080&lt;br&gt;&lt;br&gt;SpringBoot" style="rounded=0;whiteSpace=wrap;html=1;" vertex="1" parent="1">
                    <mxGeometry x="340" y="295" width="100" height="95" as="geometry"/>
                </mxCell>
                <mxCell id="15" value="Service Middleware&lt;br&gt;&lt;br&gt;&lt;br&gt;&lt;br&gt;&lt;br&gt;&lt;br&gt;&lt;br&gt;&lt;br&gt;&lt;br&gt;&lt;br&gt;&lt;br&gt;&lt;br&gt;&lt;br&gt;&lt;br&gt;&lt;br&gt;&lt;br&gt;&lt;br&gt;&lt;br&gt;&lt;br&gt;&lt;br&gt;&lt;br&gt;&lt;br&gt;&lt;br&gt;&lt;br&gt;&lt;br&gt;&lt;br&gt;&lt;br&gt;&lt;br&gt;&lt;br&gt;&lt;br&gt;&lt;br&gt;&lt;br&gt;&lt;br&gt;&lt;br&gt;&lt;br&gt;&lt;br&gt;&lt;br&gt;&lt;br&gt;&lt;br&gt;&lt;br&gt;&lt;br&gt;&lt;br&gt;&lt;br&gt;&lt;br&gt;&lt;br&gt;&lt;br&gt;&lt;br&gt;&lt;br&gt;&lt;br&gt;&lt;br&gt;&lt;br&gt;Eiffel Bike Corp" style="rounded=0;whiteSpace=wrap;html=1;verticalAlign=top;align=center;" vertex="1" parent="1">
                    <mxGeometry x="460" y="20" width="650" height="770" as="geometry"/>
                </mxCell>
                <mxCell id="16" value="&lt;div&gt;&lt;span&gt;Rmi-bike:1099&lt;/span&gt;&lt;/div&gt;&lt;div&gt;&lt;span&gt;&lt;br&gt;&lt;/span&gt;&lt;/div&gt;&lt;div&gt;&lt;span&gt;&lt;br&gt;&lt;/span&gt;&lt;/div&gt;&lt;div&gt;&lt;span&gt;&lt;br&gt;&lt;/span&gt;&lt;/div&gt;&lt;div&gt;&lt;span&gt;&lt;br&gt;&lt;/span&gt;&lt;/div&gt;&lt;div&gt;&lt;span&gt;&lt;br&gt;&lt;/span&gt;&lt;/div&gt;&lt;div&gt;&lt;span&gt;&lt;br&gt;&lt;/span&gt;&lt;/div&gt;&lt;div&gt;&lt;span&gt;&lt;br&gt;&lt;/span&gt;&lt;/div&gt;&lt;div&gt;&lt;span&gt;&lt;br&gt;&lt;/span&gt;&lt;/div&gt;&lt;div&gt;&lt;span&gt;&lt;br&gt;&lt;/span&gt;&lt;/div&gt;&lt;div&gt;&lt;span&gt;&lt;br&gt;&lt;/span&gt;&lt;/div&gt;&lt;div&gt;&lt;span&gt;&lt;br&gt;&lt;/span&gt;&lt;/div&gt;&lt;div&gt;&lt;span&gt;&lt;br&gt;&lt;/span&gt;&lt;/div&gt;&lt;div&gt;&lt;span&gt;&lt;br&gt;&lt;/span&gt;&lt;/div&gt;&lt;div&gt;&lt;span&gt;&lt;br&gt;&lt;/span&gt;&lt;/div&gt;&lt;div&gt;&lt;span&gt;&lt;br&gt;&lt;/span&gt;&lt;/div&gt;&lt;div&gt;&lt;span&gt;&lt;br&gt;&lt;/span&gt;&lt;/div&gt;&lt;div&gt;&lt;br&gt;&lt;/div&gt;&lt;div&gt;Java RMI&lt;/div&gt;&lt;div style=&quot;text-align: left&quot;&gt;&lt;br&gt;&lt;/div&gt;" style="rounded=0;whiteSpace=wrap;html=1;align=center;verticalAlign=top;" vertex="1" parent="1">
                    <mxGeometry x="611" y="60" width="260" height="300" as="geometry"/>
                </mxCell>
                <mxCell id="18" value="BikeListService" style="rounded=0;whiteSpace=wrap;html=1;" vertex="1" parent="1">
                    <mxGeometry x="681" y="100" width="120" height="60" as="geometry"/>
                </mxCell>
                <mxCell id="19" value="LocationListService" style="rounded=0;whiteSpace=wrap;html=1;" vertex="1" parent="1">
                    <mxGeometry x="681" y="180" width="120" height="60" as="geometry"/>
                </mxCell>
                <mxCell id="20" value="FeedListService" style="rounded=0;whiteSpace=wrap;html=1;" vertex="1" parent="1">
                    <mxGeometry x="681" y="255" width="120" height="60" as="geometry"/>
                </mxCell>
                <mxCell id="21" value="RMI-customers:1099&lt;br&gt;&lt;br&gt;&lt;br&gt;Java RMI" style="rounded=0;whiteSpace=wrap;html=1;verticalAlign=top;" vertex="1" parent="1">
                    <mxGeometry x="646" y="430" width="190" height="80" as="geometry"/>
                </mxCell>
                <mxCell id="23" value="" style="endArrow=classic;startArrow=classic;html=1;fontSize=13;entryX=0.5;entryY=1;entryDx=0;entryDy=0;" edge="1" parent="1" source="10" target="12">
                    <mxGeometry width="50" height="50" relative="1" as="geometry">
                        <mxPoint x="560" y="400" as="sourcePoint"/>
                        <mxPoint x="610" y="350" as="targetPoint"/>
                        <Array as="points"/>
                    </mxGeometry>
                </mxCell>
                <mxCell id="26" value="" style="endArrow=classic;startArrow=classic;html=1;fontSize=13;exitX=0.75;exitY=0;exitDx=0;exitDy=0;entryX=0.25;entryY=0;entryDx=0;entryDy=0;" edge="1" parent="1" source="12" target="14">
                    <mxGeometry width="50" height="50" relative="1" as="geometry">
                        <mxPoint x="202.5" y="490" as="sourcePoint"/>
                        <mxPoint x="250" y="395" as="targetPoint"/>
                        <Array as="points">
                            <mxPoint x="300" y="260"/>
                        </Array>
                    </mxGeometry>
                </mxCell>
                <mxCell id="28" value="" style="endArrow=classic;startArrow=classic;html=1;fontSize=13;entryX=0.006;entryY=0.714;entryDx=0;entryDy=0;entryPerimeter=0;" edge="1" parent="1" source="14" target="16">
                    <mxGeometry width="50" height="50" relative="1" as="geometry">
                        <mxPoint x="560" y="340" as="sourcePoint"/>
                        <mxPoint x="610" y="290" as="targetPoint"/>
                    </mxGeometry>
                </mxCell>
                <mxCell id="29" value="" style="endArrow=classic;startArrow=classic;html=1;fontSize=13;exitX=1;exitY=0.5;exitDx=0;exitDy=0;" edge="1" parent="1" source="14" target="21">
                    <mxGeometry width="50" height="50" relative="1" as="geometry">
                        <mxPoint x="560" y="340" as="sourcePoint"/>
                        <mxPoint x="610" y="290" as="targetPoint"/>
                    </mxGeometry>
                </mxCell>
                <mxCell id="30" value="" style="endArrow=classic;startArrow=classic;html=1;fontSize=13;exitX=-0.009;exitY=0.714;exitDx=0;exitDy=0;exitPerimeter=0;entryX=0;entryY=0.5;entryDx=0;entryDy=0;" edge="1" parent="1" source="16" target="18">
                    <mxGeometry width="50" height="50" relative="1" as="geometry">
                        <mxPoint x="560" y="280" as="sourcePoint"/>
                        <mxPoint x="610" y="230" as="targetPoint"/>
                    </mxGeometry>
                </mxCell>
                <mxCell id="31" value="" style="endArrow=classic;startArrow=classic;html=1;fontSize=13;exitX=-0.014;exitY=0.706;exitDx=0;exitDy=0;exitPerimeter=0;entryX=0;entryY=0.5;entryDx=0;entryDy=0;" edge="1" parent="1" source="16" target="19">
                    <mxGeometry width="50" height="50" relative="1" as="geometry">
                        <mxPoint x="560" y="280" as="sourcePoint"/>
                        <mxPoint x="610" y="230" as="targetPoint"/>
                    </mxGeometry>
                </mxCell>
                <mxCell id="32" value="" style="endArrow=classic;startArrow=classic;html=1;fontSize=13;entryX=0;entryY=0.25;entryDx=0;entryDy=0;" edge="1" parent="1" target="20">
                    <mxGeometry width="50" height="50" relative="1" as="geometry">
                        <mxPoint x="580" y="270" as="sourcePoint"/>
                        <mxPoint x="610" y="230" as="targetPoint"/>
                    </mxGeometry>
                </mxCell>
            </root>
        </mxGraphModel>
    </diagram>
</mxfile>